<svg xmlns:xlink="http://www.w3.org/1999/xlink" xmlns="http://www.w3.org/2000/svg" aria-hidden="true" focusable="false" fill="none" stroke-width="1.7" width="24" class="icon icon-picto-earth" viewBox="0 0 24 24" height="24" >
      <path clip-rule="evenodd" d="M12 23.25c6.213 0 11.25-5.037 11.25-11.25S18.213.75 12 .75.75 5.787.75 12 5.787 23.25 12 23.25Z" stroke="#1C1C1C" stroke-linecap="round" stroke-linejoin="round" fill="none" stroke-width="1.7px"></path>
      <path clip-rule="evenodd" d="M7.079 15.75a1.5 1.5 0 0 0 1.455-1.864l-.75-3A1.5 1.5 0 0 0 6.329 9.75H.976a11.246 11.246 0 0 0 4.016 11.042L6 15.75h1.079Zm13.906-10.5h-4.064a1.5 1.5 0 0 0-1.455 1.136l-.75 3a1.5 1.5 0 0 0 1.455 1.864h1.579l.791 4.75a1.5 1.5 0 0 0 1.48 1.253h1.925a11.2 11.2 0 0 0-.961-12V5.25Z" stroke="#1C1C1C" stroke-linecap="round" stroke-linejoin="round" fill="none" stroke-width="1.7px"></path>
    </svg>