<svg width="224" height="79" viewBox="0 0 224 79" fill="none" xmlns="http://www.w3.org/2000/svg">
<path d="M157.061 9.70267C160.381 9.89886 163.351 9.46699 165.969 8.40702C168.926 7.25662 172.109 6.94784 175.521 7.48067C176.289 7.63646 176.367 7.25462 175.756 6.33512C175.392 4.98859 175.764 4.34801 176.871 4.41339C177.886 4.14215 178.316 4.38837 178.159 5.15205C178.25 5.48871 178.725 5.90325 179.584 6.39568C183.284 3.96414 186.501 3.10519 189.235 3.81882C192.217 4.1054 194.666 3.09065 196.582 0.774569C199.407 1.82483 202.343 1.94309 205.391 1.12935C208.686 -0.111436 211.531 -0.329809 213.927 0.474233C216.009 2.80564 217.459 5.48618 218.278 8.51588C219.345 11.1186 221.042 13.3721 223.372 15.2764C223.306 16.3768 222.766 17.0625 221.75 17.3338C221.072 17.5146 221.209 18.0195 222.159 18.8486C210.868 20.0587 200.436 21.7613 190.864 23.9563C181.291 26.1513 171.843 28.1328 162.518 29.9007C152.359 32.6132 142.799 35.5267 133.838 38.6412C124.877 41.7557 115.747 44.9153 106.447 48.1202C97.1474 51.3251 87.3401 54.6659 77.0245 58.1419C66.9564 61.1908 55.8725 64.5114 43.773 68.1027C37.8597 70.4037 31.269 72.8854 24.0011 75.5477C16.7332 78.21 10.5015 79.3323 5.30601 78.9152C3.99208 76.7395 3.15323 74.9784 2.78942 73.6317C2.33467 71.949 1.40486 69.8513 0 67.3391C0.313451 65.8112 0.717855 64.6209 1.2132 63.7667C1.95623 62.4853 2.10038 61.0033 1.64562 59.32C5.77493 57.1349 10.4577 54.9824 15.6938 52.8626C21.2685 50.652 26.9343 48.7783 32.6909 47.2413C38.4475 45.7042 44.0804 44.3806 49.5894 43.2706C55.3458 41.7335 60.64 40.5005 65.4722 39.5713C71.4512 36.1702 76.687 34.0503 81.1802 33.2115C86.0119 32.2823 90.6165 30.5115 94.9936 27.8992C95.9181 27.2913 96.563 27.6606 96.9267 29.0072C103.426 26.189 111.631 23.6372 121.543 21.3518C131.793 18.9759 140.799 16.0297 148.562 12.5132C150.099 12.8249 151.759 12.9229 153.543 12.8075C155.236 12.3554 156.409 11.3205 157.061 9.70267ZM162.489 13.6672C160.639 14.883 158.698 15.7621 156.666 16.3046C154.882 16.42 152.805 16.7942 150.435 17.4271C137.658 21.1995 124.08 25.3663 109.7 29.9275C95.3215 34.4886 81.9707 39.4969 69.649 44.9525C81.9959 40.9339 93.8478 37.7694 105.205 35.4589C116.809 32.7214 127.938 29.5694 138.592 26.0028C137.46 24.5005 137.741 23.5233 139.434 23.0712C139.954 23.6541 140.091 24.159 139.843 24.5861C139.505 24.6765 139.426 25.0583 139.608 25.7316C148.256 24.1445 155.582 22.3688 161.586 20.4048C167.838 18.0136 176.258 15.5849 186.847 13.1186C188.226 14.1939 189.593 14.5507 190.948 14.1891C190.584 12.8426 190.572 12.1241 190.91 12.0336C193.71 11.647 195.911 11.0593 197.513 10.2706C199.454 9.39141 201.329 9.61261 203.138 10.9341C204.245 10.9995 204.923 10.8187 205.17 10.3916C205.666 9.53751 206.343 9.35671 207.202 9.84914C206.499 8.59304 206.272 7.75143 206.52 7.32441C207.106 6.8069 207.477 6.16637 207.635 5.40265C200.746 5.43741 193.284 6.70805 185.247 9.21466C177.211 11.7213 169.625 13.2054 162.489 13.6672Z" fill="#181C2E"/>
</svg>
