<svg xmlns:xlink="http://www.w3.org/1999/xlink" xmlns="http://www.w3.org/2000/svg" aria-hidden="true" focusable="false" fill="none" stroke-width="1.7" width="24" class="icon icon-picto-document" viewBox="0 0 24 24" height="24" >
      <path d="M7.5 9.51h9m-9 3.75h9m-9 3.75h9" stroke="#1C1C1C" stroke-linecap="round" stroke-linejoin="round" fill="none" stroke-width="1.7px"></path>
      <path clip-rule="evenodd" d="M15.75 4.51h3.75a1.5 1.5 0 0 1 1.5 1.5V21a1.5 1.5 0 0 1-1.5 1.5h-15A1.5 1.5 0 0 1 3 21V6.01a1.5 1.5 0 0 1 1.5-1.5h3.75a3.75 3.75 0 1 1 7.5 0Z" stroke="#1C1C1C" stroke-linecap="round" stroke-linejoin="round" fill="none" stroke-width="1.7px"></path>
      <path d="M12 3.76a.375.375 0 1 1 0 .75.375.375 0 0 1 0-.75" stroke="#1C1C1C" stroke-linecap="round" stroke-linejoin="round" fill="none" stroke-width="1.7px"></path>
    </svg>